HIERARCHY
ROOT hip
{
  OFFSET 0 0 0
  CHANNELS 6 Xposition Yposition Zposition Zrotation Yrotation Xrotation
  JOINT abdomen
  {
    OFFSET 0 20.6881 -0.73152
    CHANNELS 3 Zrotation Xrotation Yrotation
    JOINT chest
    {
      OFFSET 0 11.7043 -0.48768
      CHANNELS 3 Zrotation Xrotation Yrotation
      JOINT neck
      {
        OFFSET 0 22.1894 -2.19456
        CHANNELS 3 Zrotation Xrotation Yrotation
        JOINT head
        {
          OFFSET -0.24384 7.07133 1.2192
          CHANNELS 3 Zrotation Xrotation Yrotation
          JOINT leftEye
          {
            OFFSET 4.14528 8.04674 8.04672
            CHANNELS 3 Zrotation Xrotation Yrotation
            End Site
            {
              OFFSET 1 0 0
            }
          }
          JOINT rightEye
          {
            OFFSET -3.6576 8.04674 8.04672
            CHANNELS 3 Zrotation Xrotation Yrotation
            End Site
            {
              OFFSET 1 0 0
            }
          }
        }
      }
      JOINT rCollar
      {
        OFFSET -2.68224 19.2634 -4.8768
        CHANNELS 3 Zrotation Xrotation Yrotation
        JOINT rShldr
        {
          OFFSET -8.77824 -1.95073 1.46304
          CHANNELS 3 Zrotation Xrotation Yrotation
          JOINT rForeArm
          {
            OFFSET -28.1742 -1.7115 0.48768
            CHANNELS 3 Zrotation Xrotation Yrotation
            JOINT rHand
            {
              OFFSET -22.5879 0.773209 7.07136
              CHANNELS 3 Zrotation Xrotation Yrotation
              JOINT rThumb1
              {
                OFFSET -1.2192 -0.487915 3.41376
                CHANNELS 3 Zrotation Xrotation Yrotation
                JOINT rThumb2
                {
                  OFFSET -3.37035 -0.52449 3.41376
                  CHANNELS 3 Zrotation Xrotation Yrotation
                  End Site
                  {
                    OFFSET -1.78271 -1.18214 1.43049
                  }
                }
              }
              JOINT rIndex1
              {
                OFFSET -7.75947 0.938293 5.60832
                CHANNELS 3 Zrotation Xrotation Yrotation
                JOINT rIndex2
                {
                  OFFSET -2.54057 -0.884171 1.56538
                  CHANNELS 3 Zrotation Xrotation Yrotation
                  End Site
                  {
                    OFFSET -1.62519 -0.234802 1.16502
                  }
                }
              }
              JOINT rMid1
              {
                OFFSET -8.24714 1.18213 3.41376
                CHANNELS 3 Zrotation Xrotation Yrotation
                JOINT rMid2
                {
                  OFFSET -3.10165 -0.590103 1.0647
                  CHANNELS 3 Zrotation Xrotation Yrotation
                  End Site
                  {
                    OFFSET -2.48547 -0.328903 0.83742
                  }
                }
              }
              JOINT rRing1
              {
                OFFSET -8.82822 0.546677 1.51678
                CHANNELS 3 Zrotation Xrotation Yrotation
                JOINT rRing2
                {
                  OFFSET -2.60934 -0.819778 -0.0198488
                  CHANNELS 3 Zrotation Xrotation Yrotation
                  End Site
                  {
                    OFFSET -2.33842 -0.294052 0.168128
                  }
                }
              }
              JOINT rPinky1
              {
                OFFSET -8.27202 -0.0477905 -0.4584
                CHANNELS 3 Zrotation Xrotation Yrotation
                JOINT rPinky2
                {
                  OFFSET -1.82734 -0.647385 -0.700984
                  CHANNELS 3 Zrotation Xrotation Yrotation
                  End Site
                  {
                    OFFSET -1.69225 -0.51767 -0.607171
                  }
                }
              }
            }
          }
        }
      }
      JOINT lCollar
      {
        OFFSET 2.68224 19.2634 -4.8768
        CHANNELS 3 Zrotation Xrotation Yrotation
        JOINT lShldr
        {
          OFFSET 8.77824 -1.95073 1.46304
          CHANNELS 3 Zrotation Xrotation Yrotation
          JOINT lForeArm
          {
            OFFSET 28.1742 -1.7115 0.48768
            CHANNELS 3 Zrotation Xrotation Yrotation
            JOINT lHand
            {
              OFFSET 22.5879 0.773209 7.07136
              CHANNELS 3 Zrotation Xrotation Yrotation
              JOINT lThumb1
              {
                OFFSET 1.2192 -0.487915 3.41376
                CHANNELS 3 Zrotation Xrotation Yrotation
                JOINT lThumb2
                {
                  OFFSET 3.37035 -0.52449 3.41376
                  CHANNELS 3 Zrotation Xrotation Yrotation
                  End Site
                  {
                    OFFSET 1.78271 -1.18214 1.43049
                  }
                }
              }
              JOINT lIndex1
              {
                OFFSET 7.75947 0.938293 5.60832
                CHANNELS 3 Zrotation Xrotation Yrotation
                JOINT lIndex2
                {
                  OFFSET 2.54057 -0.884171 1.56538
                  CHANNELS 3 Zrotation Xrotation Yrotation
                  End Site
                  {
                    OFFSET 1.62519 -0.234802 1.16502
                  }
                }
              }
              JOINT lMid1
              {
                OFFSET 8.24714 1.18213 3.41376
                CHANNELS 3 Zrotation Xrotation Yrotation
                JOINT lMid2
                {
                  OFFSET 3.10165 -0.590103 1.0647
                  CHANNELS 3 Zrotation Xrotation Yrotation
                  End Site
                  {
                    OFFSET 2.48547 -0.328903 0.83742
                  }
                }
              }
              JOINT lRing1
              {
                OFFSET 8.82822 0.546677 1.51678
                CHANNELS 3 Zrotation Xrotation Yrotation
                JOINT lRing2
                {
                  OFFSET 2.60934 -0.819778 -0.0198488
                  CHANNELS 3 Zrotation Xrotation Yrotation
                  End Site
                  {
                    OFFSET 2.33842 -0.294052 0.168128
                  }
                }
              }
              JOINT lPinky1
              {
                OFFSET 8.27202 -0.0477905 -0.4584
                CHANNELS 3 Zrotation Xrotation Yrotation
                JOINT lPinky2
                {
                  OFFSET 1.82734 -0.647385 -0.700984
                  CHANNELS 3 Zrotation Xrotation Yrotation
                  End Site
                  {
                    OFFSET 1.69225 -0.51767 -0.607171
                  }
                }
              }
            }
          }
        }
      }
    }
  }
  JOINT rButtock
  {
    OFFSET -8.77824 4.35084 1.2192
    CHANNELS 3 Zrotation Xrotation Yrotation
    JOINT rThigh
    {
      OFFSET 0 -1.70687 -2.19456
      CHANNELS 3 Zrotation Xrotation Yrotation
      JOINT rShin
      {
        OFFSET 0 -36.8199 0.73152
        CHANNELS 3 Zrotation Xrotation Yrotation
        JOINT rFoot
        {
          OFFSET 0.73152 -45.1104 -5.12064
          CHANNELS 3 Zrotation Xrotation Yrotation
          End Site
          {
            OFFSET -1.1221 -3.69964 12.103
          }
        }
      }
    }
  }
  JOINT lButtock
  {
    OFFSET 8.77824 4.35084 1.2192
    CHANNELS 3 Zrotation Xrotation Yrotation
    JOINT lThigh
    {
      OFFSET 0 -1.70687 -2.19456
      CHANNELS 3 Zrotation Xrotation Yrotation
      JOINT lShin
      {
        OFFSET 0 -36.8199 0.73152
        CHANNELS 3 Zrotation Xrotation Yrotation
        JOINT lFoot
        {
          OFFSET -0.73152 -45.1104 -5.12064
          CHANNELS 3 Zrotation Xrotation Yrotation
          End Site
          {
            OFFSET 1.1221 -3.69964 12.103
          }
        }
      }
    }
  }
}
MOTION
Frames:	5
Frame Time:	0.03333
0.0 0.0 0.0 0.0 0.0 0.0 0.0 0.0 0.0 0.0 0.0 0.0 0.0 0.0 0.0 0.0 0.0 0.0 0.0 0.0 0.0 0.0 0.0 0.0 0.0 0.0 0.0 0.0 0.0 0.0 0.0 0.0 0.0 0.0 0.0 0.0 0.0 0.0 0.0 0.0 0.0 0.0 0.0 0.0 0.0 0.0 0.0 0.0 0.0 0.0 0.0 0.0 0.0 0.0 0.0 0.0 0.0 0.0 0.0 0.0 0.0 0.0 0.0 0.0 0.0 0.0 0.0 0.0 0.0 0.0 0.0 0.0 0.0 0.0 0.0 0.0 0.0 0.0 0.0 0.0 0.0 0.0 0.0 0.0 0.0 0.0 0.0 0.0 0.0 0.0 0.0 0.0 0.0 0.0 0.0 0.0 0.0 0.0 0.0 0.0 0.0 0.0 0.0 0.0 0.0 0.0 0.0 0.0 0.0 0.0 0.0 0.0 0.0 0.0 0.0 0.0 0.0 0.0 0.0 0.0 0.0 0.0 0.0 0.0 0.0 0.0 0.0 0.0 0.0 0.0 0.0 0.0
6.5984 69.0762 -8.190100000000001 -6.912227 -44.463284 11.149526 -4.270312 14.424741 -163.314076 -4.492282 7.389055 154.839959 7.804378 31.092506 99.930092 -44.420658 15.056958 -148.745537 0.000315 0.0 0.001086 0.000315 0.0 0.001086 0.058524 -0.352927 -0.077469 78.434317 -14.861676 82.7835 52.674736 68.504864 72.055103 -17.229835 19.367175 1.482465 168.077784 -27.834857 86.301936 -169.364108 -6.106086 99.99856 -162.918668 -37.929673 122.628706 -178.883433 -47.596341 112.960234 -8.416565 20.880413 5.645386 -151.700838 24.945481 137.161534 -0.00885 -0.831151 -0.261229 -61.334109 -86.803246 -82.94978 -26.567462 -38.859798 -25.606776 -145.912904 9.45639 -142.831389 148.692675 26.215368 -153.609684 -93.047816 -86.89047 -154.638363 -135.609031 39.910124 -89.998284 167.238311 26.560857 -138.044781 -1.59967 -1.586803 0.223407 -9.571459 -14.674424 8.724435 179.423363 -58.426185 -117.042505 -170.20755 -57.050373 -103.695597 0.058568 0.167785 -0.03142 -2.673257 1.651382 -0.201795 71.926856 72.973998 -89.77191 80.945411 83.184402 -89.874525 140.386153 -1.530631 137.474644 23.930722 -39.169929 25.594985 -179.999145 75.749827 -0.000585 -177.123386 15.240949 113.036711 99.223244 -28.585239 24.447796 122.101209 54.595971 167.512199 -0.006296 0.000477 -0.003148 10.554432 -45.488753 -0.0 -85.316132 62.973096 -124.323876 167.549294 26.365342 96.955489
9.2456 69.9267 -11.637500000000001 -9.631216 -49.869945 15.777465 -3.201995 12.631769 -165.650396 -4.851579 6.910933 156.98013 -1.094305 40.749863 178.384153 -3.992104 55.379285 128.658507 -0.001783 0.0 -0.0051 -0.001783 0.0 -0.0051 -0.165386 0.979046 0.220091 76.907805 -11.994067 85.292835 -10.879828 50.43971 126.78411 -6.174496 -13.722826 -4.118894 11.11064 -11.09191 -0.640098 -31.679806 26.332493 22.338006 -140.76267 1.380625 116.229458 69.417301 -66.37433 21.081294 -36.036308 51.722457 29.833945 -4.707795 21.073484 4.440874 -145.107002 -0.95326 -178.829645 12.003789 29.598359 -5.636906 -140.783194 -0.521032 -137.840739 -11.286319 -26.124606 -13.824084 155.417056 -2.951266 -161.719096 46.554276 28.750219 32.88921 -174.210296 -16.405942 100.873953 11.639761 17.183643 0.121568 7.758593 7.439198 -1.681183 41.562701 24.468346 -40.389033 153.454047 -21.067937 -121.743437 -95.870819 -70.677551 -42.378628 0.569925 1.648625 -0.32129 163.205923 -4.571315 -143.329274 69.296225 72.947108 -87.016631 -5.865854 0.891508 4.29494 -1.484526 4.003189 -1.361013 -2.422422 0.059557 -0.031828 0.000503 -0.00119 0.000755 0.735987 -46.342877 0.542583 -89.640096 81.87595 32.664762 115.037146 -0.113956 -21.568139 -0.000313 0.000593 0.000402 17.747406 -50.034132 73.96259 63.85019 53.223112 -94.727615 135.040565 40.467606 -35.658479
11.3649 70.5121 -14.9487 -12.62841 -55.720967 20.299547 -2.420398 11.131542 -148.984453 -2.646652 8.198382 141.120847 5.856247 36.664805 132.828842 -39.250422 36.689231 -176.817554 0.00363 0.0 0.001637 -0.002078 -0.0 0.002067 -78.727985 68.390023 81.807947 -57.036508 -86.503052 4.135561 -19.168994 -31.235721 105.059921 -1.867015 -29.683136 -4.904607 -164.697688 -2.372457 89.5844 -38.175072 -23.170804 9.883871 -140.163595 2.326293 115.878366 -15.432693 36.970274 4.396423 -57.868914 59.218151 50.524849 -163.825063 -7.033302 143.429479 -145.121972 1.893933 -179.723225 11.799447 52.87983 -2.695595 -138.443051 -6.23076 -135.660726 -11.172267 -26.153542 -13.799538 159.221329 -48.725031 -170.567337 78.335805 -12.166609 83.136526 35.509684 61.674011 78.93501 -175.507855 -24.033902 -143.276257 7.758797 7.439044 -1.681642 14.480179 13.528395 -16.689935 33.798249 34.485392 -25.494228 154.652795 2.770866 -110.110726 147.86297 25.095143 -134.772759 175.383028 -39.382364 -142.894836 114.667064 66.730166 -135.09005 -6.107952 3.563305 5.278504 139.222313 -4.396746 136.391159 147.829367 13.487881 142.165601 -179.999284 75.749888 -0.001501 172.930752 42.348218 4.671347 37.980553 82.618276 58.518653 -127.794814 -20.438044 145.303199 179.989907 75.749888 0.006906 -160.691716 20.575874 -0.0 -77.674032 71.42356 -129.596262 -47.757672 -21.920737 -129.343061
13.5296 70.8693 -18.4914 -20.447381 -62.170514 28.91798 -1.321781 8.913757 -171.530223 -6.323897 6.24061 165.96278 -15.916545 31.258007 -76.558097 47.618499 6.56177 19.957954 0.002377 -0.0 -0.002074 0.002377 -0.0 -0.002074 -155.548686 -3.804467 161.89929 8.663789 1.32736 -68.414393 -172.690039 0.667721 -68.892687 -7.941202 -7.677696 -3.564254 83.253483 -50.258347 33.616492 -120.923281 30.61428 84.646547 -166.84503 -44.003676 122.055936 -157.158236 -12.462168 119.151334 -10.975947 25.789767 7.640617 -4.871145 21.331535 4.435633 -0.013399 -1.32304 -0.416638 11.145536 -12.233101 -1.533754 12.251085 41.425196 10.280054 -160.62912 55.489861 -149.563544 -3.206439 -26.010306 5.106268 -157.40391 -81.035667 -56.875738 -4.367621 -18.868198 113.093036 178.130105 -6.090753 -143.126335 -2.012959 -1.996491 0.274189 5.616906 6.165957 -3.449252 27.172124 30.468195 -19.891432 -7.670706 0.299919 1.390643 125.643955 49.839718 -115.273692 163.468068 -5.887672 -143.192361 73.047132 72.975316 -90.9505 -4.985917 29.77027 0.443961 136.040425 -11.4421 133.393272 81.02482 -52.582322 80.976307 -0.001919 0.001179 -0.001919 -12.070318 -24.127208 152.384258 60.392886 -58.457915 162.538869 79.579973 36.128619 -2.921685 179.993726 75.74959 0.006473 -154.393206 14.926648 118.255896 87.697924 -7.01048 90.289445 76.186936 57.832683 167.809124
